<?xml version="1.0" encoding="UTF-8"?>
<svg id="Layer_1" xmlns="http://www.w3.org/2000/svg" version="1.1" viewBox="0 0 79.7 54">
  <!-- Generator: Adobe Illustrator 29.0.1, SVG Export Plug-In . SVG Version: 2.1.0 Build 192)  -->
  <defs>
    <style>
      .st0 {
        fill: #262626;
      }
    </style>
  </defs>
  <path class="st0" d="M47.1,48.5c1,1,2,1.8,3.2,2.5l5.8-5.8c-1.2-.6-2.3-1.3-3.3-2.2-1-1-1.8-2.2-2.4-3.5s-.9-2.8-1-4.2v-16.2c0-1.5.3-3,.9-4.3s1.4-2.5,2.4-3.5,2.2-1.8,3.6-2.4c1.4-.6,2.8-.9,4.4-.9s3,.3,4.3.9c1.3.6,2.5,1.4,3.5,2.4s1.8,2.2,2.4,3.5.9,2.8.9,4.3v10.4l7.9-7.9v-2.5c0-2.6-.5-5.1-1.5-7.5-1-2.3-2.4-4.4-4.1-6.1s-3.7-3-6-4-4.8-1.5-7.4-1.5-5.1.5-7.4,1.5-4.4,2.3-6.1,4.1-3.1,3.8-4.1,6.1-1.5,4.8-1.5,7.5v16c0,2.6.5,5,1.5,7.3,1,2.2,2.3,4.2,4,6Z"/>
  <path class="st0" d="M37.2,12.4c-.9-2.3-2.3-4.5-4.2-6.3-1.9-2-4-3.4-6.4-4.4-2.4-.9-4.8-1.4-7.3-1.4s-4.9.5-7.3,1.4c-2.4.9-4.5,2.4-6.4,4.4-1.9,1.9-3.3,4-4.2,6.3s-1.4,4.8-1.4,7.2.5,4.9,1.4,7.3c.9,2.4,2.3,4.5,4.2,6.4.6.6,1.4,1.2,2.1,1.8l5.8-5.8c-.8-.4-1.5-.9-2.2-1.7-1.2-1.1-2-2.3-2.6-3.7-.5-1.4-.8-2.8-.8-4.2s.3-2.8.8-4.2,1.4-2.6,2.6-3.7c1.1-1.2,2.3-2,3.7-2.6,1.4-.5,2.8-.8,4.2-.8s2.9.3,4.3.8c1.4.5,2.7,1.4,3.8,2.6,1.2,1.1,2,2.3,2.6,3.7.5,1.4.8,2.8.8,4.2s-.3,2.9-.8,4.2c-.5,1.4-1.4,2.6-2.6,3.7l-14.9,14.9L1,54h11.3l14.8-14.8,6-5.9c1.9-1.9,3.3-4,4.2-6.4s1.4-4.8,1.4-7.3c-.1-2.5-.5-4.9-1.5-7.2Z"/>
</svg>